<svg xmlns="http://www.w3.org/2000/svg" enable-background="new 0 0 1000 1000" viewBox="0 0 1000 1000"><path fill="#5fd6d0" d="M0 0h1000v1000H0z"/><path fill="#83eae0" d="M365 229c-63.754 48.926-20.881 135.344-88 182-44.702 31.073-92.675 12.87-120.622 54.285-15.838 23.472-14.82 50.078-13.378 65.548C157 681 290.195 873 475.598 827s101.034-168 229.659-212.549c52.916-18.327 109.806-33.174 129.317-125.168 11.999-56.576-6-140.811-57.114-161.052-47.422-18.778-77.732 31.607-131.78 13.466C591.42 323.486 601.345 263.761 541 227c-49.701-30.277-129.072-34.013-176 2zM707 683.667c-20.242 23.624-27.746 50.763-18.043 69.911 2.027 3.999 5.26 9.639 11.065 11.643 26.736 9.232 73.134-65.477 55.056-83.554-6.11-6.11-15.824-11.152-25.326-10.444-12.962.966-20.985 10.287-22.752 12.444z"/><radialGradient id="a" cx="271.817" cy="530.833" r="71.387" gradientUnits="userSpaceOnUse"><stop offset="0" stop-color="#ff0"/><stop offset="1" stop-color="#ff0" stop-opacity="0"/></radialGradient><ellipse cx="271.817" cy="530.833" fill="url(#a)" opacity=".79" rx="102.934" ry="99.353"/><path fill="#00b763" d="M633.054 464.738s15.202-3.702 44.202-32.702 77.798-54.46 95.749 3.749c10.609 34.401 3.096 112.262-31.556 120.542-23.343 5.577-47.895-13.089-63.395-28.589s-45-23.179-45-23.179v-39.821z"/><path fill="#07ad5a" d="M633.054 464.738v39.821s29.5 7.679 45 23.179c4.731 4.731 10.308 9.754 16.434 14.295 4.271-5.16 12.741-16.519 15.551-24.795 13.234-38.987 5.845-83.476-27.759-89.999a153.478 153.478 0 0 0-5.023 4.796c-29.001 29.001-44.203 32.703-44.203 32.703z"/><path fill="none" stroke="#442753" stroke-linecap="round" stroke-linejoin="round" stroke-miterlimit="10" stroke-width="4" d="M647.697 470.918s49.459-13.883 82.519-46.943M649.11 481.475s72.235-9.466 99.495-21.38M649.395 501.508s40.41 9.921 80.821 33.785M649.395 493.476s70.154 6.206 99.21 6.206" opacity=".8"/><path fill="#00b763" d="M487.054 362.154s4.723-19.033 12.498-26.517c7.775-7.485 20.745-9.727 47.754-4.727 27.01 5 46.748 14.227 46.748 24.727 0 5-19.628 21.94-24.358 21.94s-68.992-17.222-82.642-15.423z"/><path fill="#07ad5a" d="M532.216 344.976c-23.181 0-33.486 10.312-37.386 17.376 21.767 2.241 70.758 15.224 74.866 15.224 3.59 0 15.759-9.758 21.416-16.648-9.202-11.044-35.9-15.952-58.896-15.952z"/><path fill="none" stroke="#442753" stroke-linecap="round" stroke-linejoin="round" stroke-miterlimit="10" stroke-width="4" d="M510.293 356.968s5.063-11.992 15.159-16.992M548.855 344.976c-11.5 3.496-20.539 16-20.539 16M548.855 363.683s9-10.779 24-10.779" opacity=".8"/><path fill="none" stroke="#0f7c46" stroke-linecap="round" stroke-linejoin="round" stroke-miterlimit="10" stroke-width="6" d="M487.054 362.154s4.723-19.033 12.498-26.517c7.775-7.485 20.745-9.727 47.754-4.727 27.01 5 46.748 14.227 46.748 24.727 0 5-19.628 21.94-24.358 21.94s-68.992-17.222-82.642-15.423zM633.054 464.738s15.202-3.702 44.202-32.702 77.798-54.46 95.749 3.749c10.609 34.401 3.096 112.262-31.556 120.542-23.343 5.577-47.895-13.089-63.395-28.589s-45-23.179-45-23.179v-39.821z"/><path fill="#00b763" d="M461.049 620.238s24.505 31.5 37.005 44 110-11 121-22 14-36-44-50c0 0-52.443 43.752-114.005 28z"/><path fill="#07ad5a" d="M486.911 651.988c37.521-1.483 106.538-7.314 137.637-29.845-3.305-10.464-16.567-21.957-49.494-29.905 0 0-49.202 41.047-108.235 29.31a49.4 49.4 0 0 0-2.699 2.601c4.729 5.991 14.156 17.802 22.791 27.839z"/><path fill="none" stroke="#442753" stroke-linecap="round" stroke-linejoin="round" stroke-miterlimit="10" stroke-width="4" d="M501.355 636.211s13 9.945 17.875 19.89M525.451 635.044s11.049 8.517 15.618 17.432M543.237 628.724s12.317 5.585 19.451 17.432M558.397 623.537s22.057 6.287 26.625 15.201M576.631 614.451s23.489 5.358 28.057 14.273" opacity=".8"/><path fill="none" stroke="#0f7c46" stroke-linecap="round" stroke-linejoin="round" stroke-miterlimit="10" stroke-width="6" d="M461.049 620.238s24.505 31.5 37.005 44 110-11 121-22 14-36-44-50c0 0-52.443 43.752-114.005 28z"/><path fill="#f4e834" d="M244.054 517.238s6 27.057 27.585 25c16.052-1.53 20.007-35.41-4.118-48.284-24.126-12.874-23.467 23.284-23.467 23.284z"/><path fill="#f4e834" stroke="#d3a548" stroke-miterlimit="10" stroke-width="6" d="M244.054 517.238s6 27.057 27.585 25c16.052-1.53 20.007-35.41-4.118-48.284-24.126-12.874-23.467 23.284-23.467 23.284z"/><circle cx="262.855" cy="515.226" r="10.25" fill="#f4e834"/><circle cx="262.855" cy="515.226" r="8.962" fill="#f99338" opacity=".66"/><path fill="#00f0b5" d="M648.252 474.338c-11.3-76.218-87.563-128.057-170.338-115.784-15.462 2.292-30.056 6.66-43.495 12.744-15.731 7.122-34.252 3.114-45.592-9.908-5.025-5.77-9.681-10.89-12.176-13.082-7.119-6.232-15.324-12.49-24.732-18.047-4.69-2.797-9.713-5.355-14.965-7.728a130.11 130.11 0 0 0-16.657-6.027c-1.464-.387-2.914-.826-4.404-1.169l-4.494-1.003-4.585-.798c-1.536-.254-3.103-.402-4.66-.604-6.257-.669-12.702-.776-19.184-.137-6.477.636-12.991 2.028-19.265 4.282l-1.177.42-.588.211-.294.106c-.766.305-.285.117-.489.2l-.126.057-2.023.905-2.024.906-1.013.453c-.34.153-.763.401-1.14.597a333.61 333.61 0 0 0-4.628 2.543c-1.47.881-2.786 1.818-4.18 2.731-5.425 3.767-10.354 8.115-14.728 12.842-4.343 4.756-8.156 9.856-11.495 15.148a112.097 112.097 0 0 0-8.589 16.469l-.443 1.07-.438 1.147-.753 1.997c-.25.629-.503 1.398-.753 2.15l-.745 2.244c-.48 1.488-.85 2.921-1.274 4.375-.384 1.455-.712 2.917-1.065 4.365-2.574 11.654-3.005 23.238-1.959 33.968 1.054 10.744 3.489 20.662 6.625 29.434 3.146 8.775 6.903 16.449 10.728 22.921a143.704 143.704 0 0 0 10.945 16.038c1.633 2.136 3.22 3.935 4.55 5.541.685.762 1.314 1.469 1.894 2.118-2.57 7.096-5.953 21.054 2.865 29.872 8.167 8.167 10.84-22.683 28.506-25.506 5.577-.891 7.005-8.339 1.298-14.046-4.843-4.843-16.219-5.629-26.335 1.461l-.385-.461c-1.182-1.542-2.601-3.266-4.043-5.305a132.928 132.928 0 0 1-9.581-15.185c-3.306-6.078-6.483-13.23-9.049-21.288-2.558-8.055-4.41-17.055-5.003-26.618-.586-9.554.18-19.682 2.767-29.654.354-1.237.678-2.488 1.054-3.727.408-1.218.785-2.497 1.216-3.678l.653-1.757c.215-.585.417-1.158.715-1.84l.824-1.968.353-.84.409-.895a97.12 97.12 0 0 1 7.939-13.957c3.048-4.464 6.463-8.689 10.223-12.521 3.787-3.801 7.932-7.17 12.341-10.003 1.113-.663 2.238-1.415 3.329-2.015 1.079-.535 2.148-1.08 3.208-1.637.282-.139.492-.28.832-.419l1.028-.417 2.056-.833 1.952-.791.228-.071.461-.143.92-.288c4.895-1.558 9.998-2.463 15.14-2.779 5.143-.318 10.321-.052 15.405.679 1.27.218 2.539.374 3.796.632l3.755.793 3.702.97c1.228.326 2.433.748 3.643 1.112a110.856 110.856 0 0 1 13.897 5.607c4.411 2.197 8.646 4.539 12.614 7.107 7.958 5.096 14.933 10.823 20.98 16.513 1.853 1.75 5.195 5.693 8.965 10.365 11.016 13.651 11.573 32.94 1.395 47.227-19.821 27.824-29.301 61.961-24.098 97.053 11.3 76.218 87.563 128.057 170.338 115.784s140.716-84.01 129.416-160.228z"/><path fill="#12cc9b" d="M380.688 583.642s.898 4 16.115-1.667 27.885-24.64 27.885-24.64l-35.572 13.357-18.684 3.314 10.256 9.636zM377.355 352.904s12.395 25.681 33.333 30.739c20.699 5 32.333-11.667 50.361-19.96-15.662 3.133-34.594 11.96-34.594 11.96s-24.23 3.163-40.1-14.667c-15.87-17.83-9-8.072-9-8.072z"/><path fill="#12cc9b" d="M648.252 474.338c-9.243-62.34-61.946-108.36-126.123-116.342 43.05 19.034 99.685 31.453 100.227 112.922.667 100.187-70.492 152.69-146.757 157.806-15.203 1.02-30.743-3.965-45.031-5.742 26.353 11.652 56.839 16.243 88.27 11.583 82.773-12.273 140.714-84.009 129.414-160.227z" opacity=".76"/><ellipse cx="457.054" cy="485.738" fill="#442753" rx="30" ry="31.5"/><ellipse cx="449.054" cy="477.738" fill="#fff" rx="12.381" ry="13"/><ellipse cx="468.323" cy="496.921" fill="#fff" rx="7.274" ry="7.638"/><path fill="#00b763" d="M553.44 492.413c-.529-1.244-3.292-7.393-9.91-10.923-11.395-6.078-24.839.567-31.58 3.907-4.808 2.383-10.582 5.21-10.859 9.509-.296 4.585 5.497 6.699 6.017 11.114-.519 4.546-6.312 6.597-6.017 11.182.277 4.299 6.051 7.161 10.859 9.543 6.741 3.341 20.185 10.003 31.58 3.924 6.618-3.53 9.381-9.67 9.91-10.914.805-1.893 2.114-7.782 2.114-13.671s-1.309-11.778-2.114-13.671z"/><path fill="none" stroke="#442753" stroke-linecap="round" stroke-linejoin="round" stroke-miterlimit="10" stroke-width="4" d="M513.471 498.563s17.501-4.329 28.596-4.329M513.471 507.669s17.05-2.388 24.55 1.112" opacity=".8"/><path fill="none" stroke="#0f7c46" stroke-linecap="round" stroke-linejoin="round" stroke-miterlimit="10" stroke-width="6" d="M553.44 492.413c-.529-1.244-3.292-7.393-9.91-10.923-11.395-6.078-24.839.567-31.58 3.907-4.808 2.383-10.582 5.21-10.859 9.509-.296 4.585 5.497 6.699 6.017 11.114-.519 4.546-6.312 6.597-6.017 11.182.277 4.299 6.051 7.161 10.859 9.543 6.741 3.341 20.185 10.003 31.58 3.924 6.618-3.53 9.381-9.67 9.91-10.914.805-1.893 2.114-7.782 2.114-13.671s-1.309-11.778-2.114-13.671z"/><path fill="none" stroke="#0a8e6b" stroke-linecap="round" stroke-linejoin="round" stroke-miterlimit="10" stroke-width="6" d="M648.252 474.338c-11.3-76.218-87.563-128.057-170.338-115.784-15.462 2.292-30.056 6.66-43.495 12.744-15.731 7.122-34.252 3.114-45.592-9.908-5.025-5.77-9.681-10.89-12.176-13.082-7.119-6.232-15.324-12.49-24.732-18.047-4.69-2.797-9.713-5.355-14.965-7.728a130.11 130.11 0 0 0-16.657-6.027c-1.464-.387-2.914-.826-4.404-1.169l-4.494-1.003-4.585-.798c-1.536-.254-3.103-.402-4.66-.604-6.257-.669-12.702-.776-19.184-.137-6.477.636-12.991 2.028-19.265 4.282l-1.177.42-.588.211-.294.106c-.766.305-.285.117-.489.2l-.126.057-2.023.905-2.024.906-1.013.453c-.34.153-.763.401-1.14.597a333.61 333.61 0 0 0-4.628 2.543c-1.47.881-2.786 1.818-4.18 2.731-5.425 3.767-10.354 8.115-14.728 12.842-4.343 4.756-8.156 9.856-11.495 15.148a112.097 112.097 0 0 0-8.589 16.469l-.443 1.07-.438 1.147-.753 1.997c-.25.629-.503 1.398-.753 2.15l-.745 2.244c-.48 1.488-.85 2.921-1.274 4.375-.384 1.455-.712 2.917-1.065 4.365-2.574 11.654-3.005 23.238-1.959 33.968 1.054 10.744 3.489 20.662 6.625 29.434 3.146 8.775 6.903 16.449 10.728 22.921a143.704 143.704 0 0 0 10.945 16.038c1.633 2.136 3.22 3.935 4.55 5.541.685.762 1.314 1.469 1.894 2.118-2.57 7.096-5.953 21.054 2.865 29.872 8.167 8.167 10.84-22.683 28.506-25.506 5.577-.891 7.005-8.339 1.298-14.046-4.843-4.843-16.219-5.629-26.335 1.461l-.385-.461c-1.182-1.542-2.601-3.266-4.043-5.305a132.928 132.928 0 0 1-9.581-15.185c-3.306-6.078-6.483-13.23-9.049-21.288-2.558-8.055-4.41-17.055-5.003-26.618-.586-9.554.18-19.682 2.767-29.654.354-1.237.678-2.488 1.054-3.727.408-1.218.785-2.497 1.216-3.678l.653-1.757c.215-.585.417-1.158.715-1.84l.824-1.968.353-.84.409-.895a97.12 97.12 0 0 1 7.939-13.957c3.048-4.464 6.463-8.689 10.223-12.521 3.787-3.801 7.932-7.17 12.341-10.003 1.113-.663 2.238-1.415 3.329-2.015 1.079-.535 2.148-1.08 3.208-1.637.282-.139.492-.28.832-.419l1.028-.417 2.056-.833 1.952-.791.228-.071.461-.143.92-.288c4.895-1.558 9.998-2.463 15.14-2.779 5.143-.318 10.321-.052 15.405.679 1.27.218 2.539.374 3.796.632l3.755.793 3.702.97c1.228.326 2.433.748 3.643 1.112a110.856 110.856 0 0 1 13.897 5.607c4.411 2.197 8.646 4.539 12.614 7.107 7.958 5.096 14.933 10.823 20.98 16.513 1.853 1.75 5.195 5.693 8.965 10.365 11.016 13.651 11.573 32.94 1.395 47.227-19.821 27.824-29.301 61.961-24.098 97.053 11.3 76.218 87.563 128.057 170.338 115.784s140.716-84.01 129.416-160.228z"/><path fill="#fff" d="M400.904 566.798a124.68 124.68 0 0 1-18.74 5.6c-12.23-11.86-19.44-29.93-18.11-49.65.86-12.67 5.12-24.18 11.68-33.48-.82 3.82-1.38 7.75-1.65 11.77-1.76 26.11 8.92 50.1 26.82 65.76z"/><path fill="none" stroke="#fff" stroke-linecap="round" stroke-linejoin="round" stroke-miterlimit="10" stroke-width="3" d="M400.904 566.798a124.68 124.68 0 0 1-18.74 5.6c-12.23-11.86-19.44-29.93-18.11-49.65.86-12.67 5.12-24.18 11.68-33.48-.82 3.82-1.38 7.75-1.65 11.77-1.76 26.11 8.92 50.1 26.82 65.76z"/><path fill="#fff" d="M419.214 558.048c-3.29 1.91-6.71 3.7-10.24 5.34-.83.39-1.66.76-2.49 1.12-6.05-8.4-9.68-19.11-9.68-30.79 0-10.26 2.81-19.78 7.6-27.64-.45 3.13-.69 6.33-.69 9.58 0 16.26 5.85 31.1 15.5 42.39z"/><path fill="none" stroke="#fff" stroke-linecap="round" stroke-linejoin="round" stroke-miterlimit="10" stroke-width="3" d="M419.214 558.048c-3.29 1.91-6.71 3.7-10.24 5.34-.83.39-1.66.76-2.49 1.12-6.05-8.4-9.68-19.11-9.68-30.79 0-10.26 2.81-19.78 7.6-27.64-.45 3.13-.69 6.33-.69 9.58 0 16.26 5.85 31.1 15.5 42.39z"/><path fill="none" stroke="#212121" stroke-linecap="round" stroke-linejoin="round" stroke-miterlimit="10" stroke-width="6" d="M483.022 537.976s0 21.125-19.537 33.13M499.747 546.297s7.578 15.218-.547 31.877" opacity=".3"/><path fill="none" stroke="#0a8e6b" stroke-linecap="round" stroke-linejoin="round" stroke-miterlimit="10" stroke-width="6" d="M430.804 550.464a126.777 126.777 0 0 1-21.83 12.923c-11.885 5.526-24.094 9.021-36.098 10.62"/><path fill="none" stroke="#442753" stroke-linecap="round" stroke-linejoin="round" stroke-miterlimit="10" stroke-width="4" d="M513.471 515.642s13.434 1.316 16.217 4.099" opacity=".8"/><path fill="#83eae0" d="M663 241s-7.644 28 21.178 28S695 229 663 241z"/></svg>