<svg xmlns="http://www.w3.org/2000/svg" width="24" height="24" fill="none"><path fill="url(#a)" d="M9 5c-3.86 0-7 3.14-7 7s3.14 7 7 7 7-3.14 7-7-3.14-7-7-7Zm0 12c-2.76 0-5-2.24-5-5s2.24-5 5-5 5 2.24 5 5-2.24 5-5 5Z"/><path fill="url(#b)" d="M9 7c-2.76 0-5 2.24-5 5s2.24 5 5 5 5-2.24 5-5-2.24-5-5-5Zm0 4c-.55 0-1 .45-1 1s-.45 1-1 1-1-.45-1-1c0-1.65 1.35-3 3-3 .55 0 1 .45 1 1s-.45 1-1 1Z"/><path fill="url(#c)" d="M10 10c0 .55-.45 1-1 1s-1 .45-1 1-.45 1-1 1-1-.45-1-1c0-1.65 1.35-3 3-3 .55 0 1 .45 1 1Z"/><path fill="url(#d)" d="M19 2c-1.65 0-3 1.35-3 3s1.35 3 3 3 3-1.35 3-3-1.35-3-3-3Zm0 4c-.55 0-1-.45-1-1s.45-1 1-1 1 .45 1 1-.45 1-1 1Z"/><path fill="url(#e)" d="M19 6a1 1 0 1 0 0-2 1 1 0 0 0 0 2Z"/><path fill="url(#f)" d="M18 20a2 2 0 1 0 0-4 2 2 0 0 0 0 4Z"/><defs><linearGradient id="a" x1="9" x2="9" y1="5" y2="19" gradientUnits="userSpaceOnUse"><stop stop-color="#FFA68D"/><stop offset="1" stop-color="#FD3A84"/></linearGradient><linearGradient id="b" x1="9" x2="9" y1="7" y2="17" gradientUnits="userSpaceOnUse"><stop stop-color="#FFF2F4"/><stop offset="1" stop-color="#FFE0E5"/></linearGradient><linearGradient id="c" x1="8" x2="8" y1="9" y2="13" gradientUnits="userSpaceOnUse"><stop stop-color="#FFA68D"/><stop offset="1" stop-color="#FD3A84"/></linearGradient><linearGradient id="d" x1="19" x2="19" y1="2" y2="8" gradientUnits="userSpaceOnUse"><stop stop-color="#FFA68D"/><stop offset="1" stop-color="#FD3A84"/></linearGradient><linearGradient id="e" x1="19" x2="19" y1="4" y2="6" gradientUnits="userSpaceOnUse"><stop stop-color="#FFF2F4"/><stop offset="1" stop-color="#FFE0E5"/></linearGradient><linearGradient id="f" x1="18" x2="18" y1="16" y2="20" gradientUnits="userSpaceOnUse"><stop stop-color="#FFA68D"/><stop offset="1" stop-color="#FD3A84"/></linearGradient></defs></svg>