<svg xmlns="http://www.w3.org/2000/svg" viewBox="0 0 48 48"><symbol id="New_Symbol_14" viewBox="-6.5 -6.5 13 13"><path fill="#ffd4c3" stroke="#504b46" stroke-linecap="round" stroke-linejoin="round" stroke-miterlimit="10" d="M0-6c2.2 0 4.1 1.5 4.7 3.5C6.3-2.5 6.4 0 5 0v1c0 2.8-2.2 5-5 5s-5-2.2-5-5V0c-1.4 0-1.3-2.5.2-2.5C-4.1-4.5-2.2-6 0-6z"/><circle cx="-1.6" cy="-.1" r=".1" fill="#ffc258"/><path fill="#4f4b45" d="M-1.6.5c-.3 0-.6-.3-.6-.6s.2-.7.6-.7c.3 0 .6.3.6.7s-.3.6-.6.6z"/><circle cx="1.6" cy="-.1" r=".1" fill="#ffc258"/><path fill="#4f4b45" d="M1.6.5C1.3.5 1 .2 1-.1s.3-.6.6-.6.6.3.6.6-.2.6-.6.6z"/><circle cx="-3" cy="-1.5" r=".5" fill="#fabfa5"/><circle cx="3" cy="-1.5" r=".5" fill="#fabfa5"/><path fill="none" stroke="#504b46" stroke-linecap="round" stroke-linejoin="round" stroke-miterlimit="10" d="M-1.2-3c.8-.5 1.7-.5 2.5 0"/></symbol><g id="Icons"><g id="XMLID_1985_"><ellipse id="XMLID_2012_" cx="24.7" cy="44.4" fill="#45413c" opacity=".15" rx="11.5" ry="1.5"/><path id="XMLID_1241_" fill="#4aeff7" d="M35 27.7c-.3-3.4 4-5.5 4-5.5v-5s-6.8-2.2-7-7c-.2-4.1 6.1-5.8 11.2-7.1.6-.1.5-1-.1-1-5.4.1-14.7.8-22.1 3.6-5.8 2.2-9 6-10.9 9.2-1.3 2.3-3.3 4-5.8 5l-1.7.6c-.3.1-.6.5-.6.9v1c0 .5.3.9.8 1l1.5.3c2.9.6 5.4 2.3 7.3 4.7 2.1 2.7 5.4 5.2 10.4 5.8 6.6.9 13.3-.8 16.1-1.6.4-.1.5-.7.1-.9-1.2-.6-3-1.8-3.2-4z"/><g id="XMLID_1238_"><path id="XMLID_1240_" fill="#a6fbff" d="M2.8 23.4l1.5.3c.1 0 .2.1.4.1 2.3-.9 4.2-2.6 5.5-4.8 1.8-3.2 5.1-7 10.9-9.2 4-1.5 8.5-2.4 12.7-2.9 2-1.9 6-2.9 9.4-3.8.6-.1.5-1-.1-1-5.4.1-14.7.8-22.1 3.6-5.8 2.2-9 6-10.9 9.2-1.3 2.3-3.3 4-5.8 5l-1.7.6c-.3.1-.6.5-.6.9v1c0 .4.3.9.8 1z"/><path id="XMLID_1239_" fill="#a6fbff" d="M32.5 12.2c-.4.6-.6 1.3-.5 2 .2 4.8 7 7 7 7v-4.1c0 .1-4.8-1.5-6.5-4.9z"/></g><path id="XMLID_1237_" fill="none" stroke="#45413c" stroke-linecap="round" stroke-linejoin="round" stroke-miterlimit="10" d="M35 27.7c-.3-3.4 4-5.5 4-5.5v-5s-6.8-2.2-7-7c-.2-4.1 6.1-5.8 11.2-7.1.6-.1.5-1-.1-1-5.4.1-14.7.8-22.1 3.6-5.8 2.2-9 6-10.9 9.2-1.3 2.3-3.3 4-5.8 5l-1.7.6c-.3.1-.6.5-.6.9v1c0 .5.3.9.8 1l1.5.3c2.9.6 5.4 2.3 7.3 4.7 2.1 2.7 5.4 5.2 10.4 5.8 6.6.9 13.3-.8 16.1-1.6.4-.1.5-.7.1-.9-1.2-.6-3-1.8-3.2-4z"/><path id="XMLID_1236_" fill="#f0f0f0" d="M30.9 34.1c-1.1-2.7-2.4-7.3-2.4-13.9 0-7.8 1.6-13.9 2.6-17.1-1.4.2-2.9.5-4.3.8-.9 3.1-2.3 9.2-2.3 16.2 0 5.9 1.2 11 2.1 14.2 1.5.1 3 0 4.3-.2z"/><g id="XMLID_39_"><path id="XMLID_1235_" fill="#fff" d="M31.1 3.1c-.4 1.1-.8 2.5-1.2 4.3-1.4.2-2.8.5-4.2.9.4-1.8.7-3.2 1-4.3 1.5-.4 3-.6 4.4-.9z"/></g><path id="XMLID_15_" fill="none" stroke="#45413c" stroke-linecap="round" stroke-linejoin="round" stroke-miterlimit="10" d="M30.9 34.1c-1.1-2.7-2.4-7.3-2.4-13.9 0-7.8 1.6-13.9 2.6-17.1-1.4.2-2.9.5-4.3.8-.9 3.1-2.3 9.2-2.3 16.2 0 5.9 1.2 11 2.1 14.2 1.5.1 3 0 4.3-.2z"/><path id="XMLID_14_" fill="#ffe500" d="M21.5 33.2c-1.2-5.9-1.5-8.4-1-15 .3-4.5.9-9.5 2.5-13.2-.7.2-1.4.4-2 .7-2 .8-3.7 1.7-5.1 2.8-.7 2.8-1.4 6.9-1.4 12.2 0 10 2 15.2 6 18 2.4 1.7 4.4 2.3 5.9 2.5.5.1.8-.6.3-.9-1.8-1.2-4.4-3.4-5.2-7.1z"/><g id="XMLID_12_"><path id="XMLID_13_" fill="#fff48c" d="M23 5c-.6 1.4-1.1 2.9-1.4 4.6-.2.1-.4.1-.6.2-2.4.9-4.4 2.1-6 3.5.2-1.9.6-3.5.9-4.8 1.4-1.1 3.1-2 5.1-2.8.7-.3 1.3-.5 2-.7z"/></g><path id="XMLID_11_" fill="none" stroke="#45413c" stroke-linecap="round" stroke-linejoin="round" stroke-miterlimit="10" d="M21.5 33.2c-1.2-5.9-1.5-8.4-1-15 .3-4.5.9-9.5 2.5-13.2-.7.2-1.4.4-2 .7-2 .8-3.7 1.7-5.1 2.8-.7 2.8-1.4 6.9-1.4 12.2 0 10 2 15.2 6 18 2.4 1.7 4.4 2.3 5.9 2.5.5.1.8-.6.3-.9-1.8-1.2-4.4-3.4-5.2-7.1z"/><path id="XMLID_10_" fill="#ffe500" d="M39 17.2c1.9.4 3.8-3.6 5-4 1.2-.4 2 2.3 2 6 0 2.8-.2 6.1-1.5 6-1.5-.1-2.7-4.3-5.5-3v-5z"/><path id="XMLID_9_" fill="#fff48c" d="M45.3 15.3h.3c-.4-1.5-.9-2.3-1.6-2.1-1.2.4-3.1 4.4-5 4v2.1c2.4.4 4.8-3.6 6.3-4z"/><path id="XMLID_8_" fill="none" stroke="#45413c" stroke-linecap="round" stroke-linejoin="round" stroke-miterlimit="10" d="M39 17.2c1.9.4 3.8-3.6 5-4 1.2-.4 2 2.3 2 6 0 2.8-.2 6.1-1.5 6-1.5-.1-2.7-4.3-5.5-3v-5z"/><circle id="XMLID_7_" cx="12.1" cy="19.1" r="1.1" fill="#45413c"/><circle id="XMLID_6_" cx="16.9" cy="23.1" r="1.3" fill="#fffacf"/><path id="XMLID_5_" fill="#ffe500" stroke="#45413c" stroke-linecap="round" stroke-linejoin="round" stroke-miterlimit="10" d="M42 18.2s2.1-.1 3.5-1"/><path id="XMLID_4_" fill="#ffe500" stroke="#45413c" stroke-linecap="round" stroke-linejoin="round" stroke-miterlimit="10" d="M42 20.2s2.2 0 3.5 1"/></g></g></svg>