<svg xmlns="http://www.w3.org/2000/svg" viewBox="0 0 64 64"><circle cx="42" cy="25" r="2" fill="#656d78"/><path fill="#d3374e" d="M52,47v6a10,10,0,0,1-20,0V33.99h4V53a6,6,0,0,0,12,0V51A3.9989,3.9989,0,0,1,52,47Z"/><path fill="#da4453" d="M16 53a6 6 0 0012 0V33.99h4V53a10 10 0 01-20 0V47a3.9989 3.9989 0 014 4zM48 51v2a6 6 0 01-12 0V33.99h1a6.84412 6.84412 0 003-.68V53a2 2 0 004 0V45a3.9989 3.9989 0 014-4z"/><path fill="#d3374e" d="M28,33.99V53a6,6,0,0,1-12,0V41a3.9989,3.9989,0,0,1,4,4v8a2,2,0,0,0,4,0V33.32a6.89106,6.89106,0,0,0,2.98.67Z"/><path fill="#ed5565" d="M42,27a1.99944,1.99944,0,0,0,2-2v1.99a6.97049,6.97049,0,0,1-4,6.32,6.84412,6.84412,0,0,1-3,.68H26.98A6.89106,6.89106,0,0,1,24,33.32v-.01A6.96182,6.96182,0,0,1,20,27V25a2,2,0,1,0,2-2,1.99944,1.99944,0,0,0-2,2V13a12,12,0,0,1,24,0V25a2,2,0,1,0-2,2Z"/><circle cx="22" cy="25" r="2" fill="#656d78"/><path d="M44 13.99609a.99974.99974 0 01-1-1 11 11 0 00-22 0 1 1 0 11-2 0 13 13 0 0126 0A.99974.99974 0 0144 13.99609zM26.9834 34.98828A7.99259 7.99259 0 0119 27.00391a1 1 0 012 0 5.99093 5.99093 0 005.9834 5.98437 1 1 0 110 2zM37 34.98828a1 1 0 010-2 6.007 6.007 0 006-6.00049 1 1 0 012 0A8.00927 8.00927 0 0137 34.98828z"/><path d="M20 28.00391a.99974.99974 0 01-1-1V12.99609a1 1 0 012 0V27.00391A.99974.99974 0 0120 28.00391zM44 27.98779a.99974.99974 0 01-1-1V12.99609a1 1 0 012 0v13.9917A.99974.99974 0 0144 27.98779z"/><path d="M22 28.00391a3 3 0 113-3A3.00328 3.00328 0 0122 28.00391zm0-4a1 1 0 101 1A1.001 1.001 0 0022 24.00391zM42 28.00391a3 3 0 113-3A3.00328 3.00328 0 0142 28.00391zm0-4a1 1 0 101 1A1.001 1.001 0 0042 24.00391zM42 56.00391a3.00328 3.00328 0 01-3-3 1 1 0 112 0 1 1 0 002 0 1 1 0 112 0A3.00328 3.00328 0 0142 56.00391z"/><path d="M42,60.00391a7.0085,7.0085,0,0,1-7-7,1,1,0,1,1,2,0,5,5,0,0,0,10,0,1,1,0,1,1,2,0A7.00849,7.00849,0,0,1,42,60.00391Z"/><path d="M42,64.00391a11.01245,11.01245,0,0,1-11-11,1,1,0,1,1,2,0,9,9,0,0,0,18,0,1,1,0,1,1,2,0A11.01245,11.01245,0,0,1,42,64.00391Z"/><path d="M44 54.00391a.99943.99943 0 01-1-1v-8a1 1 0 112 0v8A.99943.99943 0 0144 54.00391zM37 34.98828H26.9834a1 1 0 010-2H37a1 1 0 010 2z"/><path d="M36 54.00391a.99943.99943 0 01-1-1V33.98828a1 1 0 012 0V53.00391A.99943.99943 0 0136 54.00391zM40 54.00391a.99943.99943 0 01-1-1V33.31445a1 1 0 112 0V53.00391A.99943.99943 0 0140 54.00391zM44 46.00391a.99943.99943 0 01-1-1 5.00588 5.00588 0 015-5 1 1 0 010 2 3.00328 3.00328 0 00-3 3A.99943.99943 0 0144 46.00391z"/><path d="M48,54.00391a.99943.99943,0,0,1-1-1v-12a1,1,0,1,1,2,0v12A.99943.99943,0,0,1,48,54.00391Z"/><path d="M48,52.00391a.99943.99943,0,0,1-1-1,5.00588,5.00588,0,0,1,5-5,1,1,0,0,1,0,2,3.00328,3.00328,0,0,0-3,3A.99943.99943,0,0,1,48,52.00391Z"/><path d="M52 54.00391a.99943.99943 0 01-1-1v-6a1 1 0 112 0v6A.99943.99943 0 0152 54.00391zM22 56.00391a3.00328 3.00328 0 01-3-3 1 1 0 112 0 1 1 0 002 0 1 1 0 112 0A3.00328 3.00328 0 0122 56.00391z"/><path d="M22,60.00391a7.0085,7.0085,0,0,1-7-7,1,1,0,1,1,2,0,5,5,0,0,0,10,0,1,1,0,1,1,2,0A7.00849,7.00849,0,0,1,22,60.00391Z"/><path d="M22,64.00391a11.01245,11.01245,0,0,1-11-11,1,1,0,1,1,2,0,9,9,0,0,0,18,0,1,1,0,1,1,2,0A11.01245,11.01245,0,0,1,22,64.00391Z"/><path d="M20 54.00391a.99943.99943 0 01-1-1v-8a1 1 0 112 0v8A.99943.99943 0 0120 54.00391zM28 54.00391a.99943.99943 0 01-1-1V33.98828a1 1 0 012 0V53.00391A.99943.99943 0 0128 54.00391zM24 54.00391a.99943.99943 0 01-1-1V33.31445a1 1 0 012 0V53.00391A.99943.99943 0 0124 54.00391z"/><path d="M20,46.00391a.99943.99943,0,0,1-1-1,3.00328,3.00328,0,0,0-3-3,1,1,0,0,1,0-2,5.00588,5.00588,0,0,1,5,5A.99943.99943,0,0,1,20,46.00391Z"/><path d="M16,54.00391a.99943.99943,0,0,1-1-1v-12a1,1,0,0,1,2,0v12A.99943.99943,0,0,1,16,54.00391Z"/><path d="M16,52.00391a.99943.99943,0,0,1-1-1,3.00328,3.00328,0,0,0-3-3,1,1,0,0,1,0-2,5.00588,5.00588,0,0,1,5,5A.99943.99943,0,0,1,16,52.00391Z"/><path d="M12 54.00391a.99943.99943 0 01-1-1v-6a1 1 0 012 0v6A.99943.99943 0 0112 54.00391zM32 54.00391a.99943.99943 0 01-1-1V33.98828a1 1 0 012 0V53.00391A.99943.99943 0 0132 54.00391z"/></svg>