<svg xmlns="http://www.w3.org/2000/svg" enable-background="new 0 0 1000 1000" viewBox="0 0 1000 1000"><path fill="#333379" d="M0 0h1000v1000H0z"/><path fill="#333379" d="M399 253c-47.386 3.242-50.124 67.195-138 116-71.538 39.731-107.164 18.143-129.458 47.708C73.658 493.472 213.538 772.009 375 785c78.397 6.308 94.627-55.4 252-94 127.335-31.233 162.195-1.989 208-40 107.279-89.024 59.269-368.272-21.458-388.292-69.222-17.166-129.511 164.45-230 150C494.688 399.931 472.516 247.97 399 253z" opacity=".28"/><path fill="#022266" d="M619.871 346.319c4 26.363 0 67.03 28.933 88.613 27.517 20.527 50.238 15.417 50.238 15.417 2.648-9.844 37.495-105.679-79.171-104.03z"/><path fill="#32fd99" d="M776.232 352.457c-24.704 10.037-65.182 15.631-79.423 48.799-4.826 11.24-6.621 21.119-6.942 29.193-6.883 15.309-13.538 27.822-19.922 37.978-20.567 32.714-38.35 41.197-52.073 41.589-28.106.802-37.991-32.366-108-92-47.625-40.567-75.321-63.549-118-70-56.62-8.558-100.771 17.847-107.205 21.824-12.326 7.62-47.522 29.242-60.795 70.176-26.333 81.21 54.695 156.6 63.795 164.826 38.908 35.172 81.46 45.364 105.01 51.005 15.208 3.643 68.783 15.096 135.203-1.421 38.185-9.495 111.024-27.608 153.991-96.411 22.472-35.985 29.067-73.495 29.558-103.952 30.934-1.114 87.204-13.69 64.803-101.606z"/><path fill="#515151" d="M776.232 352.457c-3.335 1.355-6.963 2.629-10.769 3.901 17.818 80.968-35.993 93.175-66.009 94.438-.308 30.459-6.677 68.008-28.933 104.127-42.553 69.06-115.282 87.609-153.409 97.334-43.316 11.048-81.217 10.13-106.547 7.176 24.547 4.006 67.282 7.436 117.314-5.006 38.185-9.495 111.024-27.608 153.991-96.411 22.472-35.985 29.067-73.495 29.558-103.952 30.935-1.115 87.205-13.691 64.804-101.607z" opacity=".15"/><ellipse cx="253.897" cy="460.617" fill="#515151" opacity=".2" rx="10.974" ry="12.601"/><ellipse cx="331.135" cy="447.751" fill="#515151" opacity=".2" rx="11.235" ry="12.902"/><path fill="#515151" d="M271.167 389.339c5.399-3.338 50.46-28.945 107.205-21.824 50.736 6.367 84.497 35.678 117.295 64.152 62.944 54.647 95.193 94.462 124.204 88.667 13.646-2.726 22.335-9.757 36.574-32.407a216.59 216.59 0 0 0 2.034-3.306c-15.743 19.459-29.505 25.078-40.608 25.395-28.106.802-37.991-32.366-108-92-47.625-40.567-75.321-63.549-118-70-56.62-8.558-100.771 17.847-107.205 21.824-10.364 6.407-36.891 22.717-52.965 52.076 14.752-17.343 31.675-27.761 39.466-32.577z" opacity=".16"/><path fill="#a6ffd0" d="M527.88 654.426c29.276-7.28 78.921-19.627 119.857-55.999-80.577 34.399-133.197 28.338-167.866 13.588-82.348-35.035-104.83-136.69-174-134-18.408.716-42.824 8.38-54 28-13.642 23.949-.623 52.517 1.5 57 6.742 11.006 17.674 26.507 34.295 41.826 37.798 34.838 79.318 44.851 105.01 51.005 15.209 3.644 68.784 15.097 135.204-1.42z"/><path fill="none" stroke="#022266" stroke-linecap="round" stroke-linejoin="round" stroke-miterlimit="10" stroke-width="6" d="M302.5 477.963S349.5 590 479 617" opacity=".12"/><path fill="#515151" d="M536.052 644.576c-66.42 16.517-119.995 5.063-135.203 1.421-25.693-6.154-67.212-16.167-105.01-51.005-16.621-15.319-27.554-30.82-34.295-41.826-2.123-4.483-15.142-33.051-1.5-57 .245-.431.505-.849.763-1.268-3.469 3.18-6.514 6.867-8.935 11.119-13.642 23.949-.623 52.517 1.5 57 6.742 11.006 17.674 26.507 34.295 41.826 37.798 34.838 79.318 44.851 105.01 51.005 15.208 3.643 68.783 15.096 135.203-1.421 29.276-7.28 78.921-19.627 119.857-55.999a426.813 426.813 0 0 1-8.958 3.7c-36.947 26.074-77.436 36.159-102.727 42.448z" opacity=".08"/><path fill="none" stroke="#022266" stroke-linecap="round" stroke-linejoin="round" stroke-miterlimit="10" stroke-width="6" d="M253.897 507.784s19.113 73.4 99.103 114.731c58.962 30.466 153.341 46.691 270.871-8.5M269.102 488.671S334.5 691 607.428 615.459" opacity=".12"/><path fill="none" stroke="#022266" stroke-linecap="round" stroke-linejoin="round" stroke-miterlimit="10" stroke-width="6" d="M527.88 654.426c29.276-7.28 78.921-19.627 119.857-55.999-80.577 34.399-133.197 28.338-167.866 13.588-82.348-35.035-104.83-136.69-174-134-18.408.716-42.824 8.38-54 28-13.642 23.949-.623 52.517 1.5 57 6.742 11.006 17.674 26.507 34.295 41.826 37.798 34.838 79.318 44.851 105.01 51.005 15.209 3.644 68.784 15.097 135.204-1.42z"/><ellipse cx="250.795" cy="459.849" fill="#022266" rx="9.076" ry="11.833"/><ellipse cx="249.378" cy="454.419" fill="#fff" rx="3.122" ry="4.07"/><ellipse cx="327.643" cy="446.766" fill="#022266" rx="9.076" ry="11.833"/><ellipse cx="326.376" cy="442.016" fill="#fff" rx="3.271" ry="4.75"/><ellipse cx="328.011" cy="452.724" fill="#fff" rx="1.636" ry="2.375"/><ellipse cx="252.5" cy="464.599" fill="#fff" rx="1.636" ry="2.375"/><path fill="none" stroke="#022266" stroke-linecap="round" stroke-linejoin="round" stroke-miterlimit="10" stroke-width="6" d="M776.232 352.457c-24.704 10.037-65.182 15.631-79.423 48.799-4.826 11.24-6.621 21.119-6.942 29.193-6.883 15.309-13.538 27.822-19.922 37.978-20.567 32.714-38.35 41.197-52.073 41.589-28.106.802-37.991-32.366-108-92-47.625-40.567-75.321-63.549-118-70-56.62-8.558-100.771 17.847-107.205 21.824-12.326 7.62-47.522 29.242-60.795 70.176-26.333 81.21 54.695 156.6 63.795 164.826 38.908 35.172 81.46 45.364 105.01 51.005 15.208 3.643 68.783 15.096 135.203-1.421 38.185-9.495 111.024-27.608 153.991-96.411 22.472-35.985 29.067-73.495 29.558-103.952 30.934-1.114 87.204-13.69 64.803-101.606z"/><path fill="#32fd99" d="M499.871 562.016s56.312 64.874 14 142c-26 26-48.825-56-48.825-82s8.825-40.667 8.825-40.667"/><path fill="#515151" d="m499.871 562.016-1.265.94c13.916 23.762 33.088 72.032 3.265 126.393-6.106 6.106-12.036 6.254-17.537 2.572 8.329 14.934 18.655 22.978 29.537 12.095 42.312-77.126-14-142-14-142z" opacity=".2"/><path fill="none" stroke="#022266" stroke-linecap="round" stroke-linejoin="round" stroke-miterlimit="10" stroke-width="6" d="M499.871 562.016s56.312 64.874 14 142c-26 26-48.825-56-48.825-82s8.825-40.667 8.825-40.667"/><path fill="#333379" d="M584.653 243s-40.967-8-40.967 34 66 50 84 32 49.696-48.913 32-66.609-75.033.609-75.033.609zM206.488 297.405c-2.28-.298-15.005-1.785-19.906 5.072C180.526 310.95 189.873 327.32 201 335c7.472 5.157 23.139 11.499 32.104 3.226 8.355-7.71 6.541-24.102-2.104-33.226-9.235-9.748-23.062-7.821-24.512-7.595z" opacity=".28"/></svg>