<svg xmlns="http://www.w3.org/2000/svg" enable-background="new 0 0 50 50" viewBox="0 0 50 50"><path fill="#E02426" d="M2.9735,43.5788c0,0,0-0.2596,0.4601-0.3567c0.2834-0.0598,2.6769-0.6396,4.089-1.4446
		c1.4121-0.8049,0.0804,0.7836,0,0.8049C7.4422,42.6037,3.6435,44.01,2.9735,43.5788z"/><path fill="#BFBFBF" d="M5.1916 42.6695c.0198.0481.0791.0411.0935-.0114.0652-.2372.1352-.4739.2101-.7097C5.2996 41.9652 5.1044 41.989 4.9098 42.02 5.0084 42.2346 5.1024 42.4512 5.1916 42.6695zM4.4279 42.8067c.0231.0459.0818.0327.0925-.0208.0484-.2423.1017-.4844.1599-.7263-.194.0365-.3871.0801-.5792.1306C4.2146 42.3933 4.3235 42.5989 4.4279 42.8067zM3.6747 43.0207c.0263.0432.084.0241.091-.0301.0315-.2456.0678-.4915.109-.7377-.1912.056-.3812.119-.5698.1888C3.4326 42.6318 3.5558 42.8249 3.6747 43.0207zM2.936 43.3103c.0293.0402.0858.0153.0891-.0393.0144-.2472.0336-.4953.0577-.744-.1874.0752-.3733.1573-.5574.2461C2.6665 42.949 2.8034 43.1281 2.936 43.3103z"/><path fill="#686868" d="M26.3934,22.9214C18.9043,24.6929,4.1797,36.2453,1.8747,39.3888
		c-1.6791,2.2896-0.5539,3.2151,0.1819,3.5495c0.1714,0.0779,0.3629,0.0988,0.5477,0.0628
		c3.7651-0.7356,8.7736-2.2248,14.7418-4.8534c14.9567-6.5882,22.2416-16.0396,24.6361-19.146l0.0716-0.0928
		C41.8037,16.2419,33.6795,21.1988,26.3934,22.9214z"/><path fill="#5B5B5C" d="M41.8536,19.1678c-0.337,0.0864-0.6528,0.2529-0.9597,0.4224
		c-16.8594,9.2934-16.1326,11.9107-20.9166,13.0342c-1.4228,0.3347-1.6121,0.2848-2.812,1.5732
		c-6.1834,6.6355-7.4236,1.8014-10.6667,5.5747c-0.5931,0.6895-1.077,1.4644-1.6115,2.1982
		c-0.1669,0.229-0.3604,0.4438-0.5586,0.6563c3.5222-0.8228,7.9153-2.2319,13.0175-4.479
		C32.0656,31.6638,39.3437,22.4202,41.8536,19.1678z"/><path fill="#444" d="M8.6085,37.2731c1.2055,0.5543,1.9078,2.2253,0.9428,4.0951C9.8598,39.7442,9.8254,38.396,8.6085,37.2731z"/><path fill="#444" d="M9.662,36.8074c1.2055,0.5543,1.8986,2.2437,0.9427,4.0951C10.7467,40.1551,10.8767,37.9295,9.662,36.8074z
		"/><path fill="#444" d="M10.7154,36.3418c1.2119,0.5581,1.9009,2.2385,0.9428,4.0951
		C11.9677,38.8087,11.9304,37.4641,10.7154,36.3418z"/><path fill="#F1F1F1" d="M3.4555 43.0109c-.0198-.0481-.0791-.0411-.0935.0114-.0652.2373-.1352.4739-.2101.7097.1957-.0167.3909-.0406.5855-.0716C3.6387 43.4459 3.5448 43.2292 3.4555 43.0109zM4.2193 42.8736c-.0231-.0459-.0818-.0327-.0925.0208-.0484.2423-.1017.4845-.1599.7263.194-.0365.3871-.0801.5792-.1307C4.4326 43.287 4.3236 43.0814 4.2193 42.8736zM4.9725 42.6595c-.0263-.0432-.084-.0241-.091.0302-.0315.2456-.0678.4916-.109.7377.1912-.056.3812-.119.5698-.1889C5.2146 43.0484 5.0914 42.8553 4.9725 42.6595zM5.7112 42.3698c-.0293-.0402-.0858-.0153-.0891.0393-.0144.2472-.0337.4953-.0578.744.1874-.0753.3733-.1573.5574-.2462C5.9807 42.7311 5.8438 42.552 5.7112 42.3698z"/><path fill="#D7D7D7" d="M42.0537,18.9088l-0.0716,0.0928c-2.3945,3.1064-9.6794,12.5578-24.6361,19.146
		c-3.0116,1.3264-9.8234,3.6299-9.8234,3.6299c-1.9665,1.1878-3.5005,1.671-4.5491,1.8012
		c-0.1373,0.0171-0.1043,0.238,0.0338,0.2464c1.6147,0.0984,7.2234-0.3629,17.1533-4.9432
		c12.1045-5.5833,17.4146-13.6783,18.9512-15.6509c1.5366-1.9731,2.9682-4.1044,2.9682-4.1044
		C42.0855,19.0402,42.0607,18.983,42.0537,18.9088z"/><path fill="#444" d="M23.5638 17.3557c0 0-6.4977 6.8702-7.1599 11.671l7.9876-4.8008C24.3916 24.2258 21.7839 25.2323 23.5638 17.3557zM9.5973 28.1166c0 0 .2554 2.1124 3.5005 2.8471l-3.49 2.8471C9.6078 33.8108 8.0666 30.9025 9.5973 28.1166zM44.943 17.6658c0 0 4.1268-9.8537 4.0426-11.2574-.0842-1.4037-3.7337 3.5372-5.8954 6.9903-2.1616 3.4531-3.2512 4.884-3.2512 4.884l1.0896 1.5167c3.453 1.3756 7.7763 1.2914 8.0583 1.0388C49.2688 20.5855 44.943 17.6658 44.943 17.6658zM22.4934 34.8968l-4.4402 2.8452c4.9569 5.0086 10.116 2.1713 10.116 2.1713C22.8054 39.1118 22.4934 34.8968 22.4934 34.8968z"/><ellipse cx="4.464" cy="40.48" fill="#444" rx=".502" ry=".442" transform="rotate(162.429 4.463 40.478)"/></svg>